<svg width="112" height="29" viewBox="0 0 112 29" fill="none" xmlns="http://www.w3.org/2000/svg">
<path d="M29 14.5C29 22.5081 22.5081 29 14.5 29C6.49187 29 0 22.5081 0 14.5C0 6.49187 6.49187 0 14.5 0C22.5081 0 29 6.49187 29 14.5Z" fill="white"/>
<path d="M32 14.5C32 22.5081 25.5081 29 17.5 29C9.49187 29 3 22.5081 3 14.5C3 6.49187 9.49187 0 17.5 0C25.5081 0 32 6.49187 32 14.5Z" fill="url(#paint0_linear_6_14)"/>
<path d="M25 9C25 10.1046 24.1046 11 23 11C21.8954 11 21 10.1046 21 9C21 7.89543 21.8954 7 23 7C24.1046 7 25 7.89543 25 9Z" fill="white"/>
<path d="M24.333 22.4941L26.917 19.5879L28.4121 20.917L24.333 25.5049L21.666 22.5049L19 25.5049L16.333 22.5049L13.667 25.5049L11 22.5039L8.33301 25.5049L5.66602 22.5049L3.08301 25.4121L1.58789 24.083L5.66699 19.4951L8.33301 22.4941L11 19.4951L13.666 22.4941L16.333 19.4951L19 22.4951L21.667 19.4951L24.333 22.4941Z" fill="white"/>
<path d="M29.333 17.4941L31.917 14.5879L33.4121 15.917L29.333 20.5049L26.666 17.5049L24 20.5049L21.333 17.5049L18.667 20.5049L16 17.5039L13.333 20.5049L10.666 17.5049L8.08301 20.4121L6.58789 19.083L10.667 14.4951L13.333 17.4941L16 14.4951L18.666 17.4941L21.333 14.4951L24 17.4951L26.667 14.4951L29.333 17.4941Z" fill="#FFF0DE"/>
<path d="M44 28.8V0H57.68C59.8133 0 61.64 0.373333 63.16 1.12C64.7067 1.86667 65.8933 2.90667 66.72 4.24C67.5733 5.57333 68 7.13333 68 8.92C68 10.7067 67.5733 12.28 66.72 13.64C65.8667 15 64.6667 16.0667 63.12 16.84C61.6 17.5867 59.7867 17.96 57.68 17.96H48.88V13.24H57.36C58.7733 13.24 59.8667 12.8533 60.64 12.08C61.44 11.28 61.84 10.24 61.84 8.96C61.84 7.68 61.44 6.65333 60.64 5.88C59.8667 5.10666 58.7733 4.72 57.36 4.72H50.16V28.8H44Z" fill="#FF6200"/>
<path d="M73.875 28.8V0H80.035V28.8H73.875ZM92.515 28.8V0H98.675V28.8H92.515ZM76.755 11.44H95.315V16.16H76.755V11.44Z" fill="#FF6200"/>
<path d="M105.664 28.8V0H111.824V28.8H105.664Z" fill="#FF6200"/>
<path d="M41 28.8V0H54.68C56.8133 0 58.64 0.373333 60.16 1.12C61.7067 1.86667 62.8933 2.90667 63.72 4.24C64.5733 5.57333 65 7.13333 65 8.92C65 10.7067 64.5733 12.28 63.72 13.64C62.8667 15 61.6667 16.0667 60.12 16.84C58.6 17.5867 56.7867 17.96 54.68 17.96H45.88V13.24H54.36C55.7733 13.24 56.8667 12.8533 57.64 12.08C58.44 11.28 58.84 10.24 58.84 8.96C58.84 7.68 58.44 6.65333 57.64 5.88C56.8667 5.10666 55.7733 4.72 54.36 4.72H47.16V28.8H41Z" fill="white"/>
<path d="M70.875 28.8V0H77.035V28.8H70.875ZM89.515 28.8V0H95.675V28.8H89.515ZM73.755 11.44H92.315V16.16H73.755V11.44Z" fill="white"/>
<path d="M102.664 28.8V0H108.824V28.8H102.664Z" fill="white"/>
<defs>
<linearGradient id="paint0_linear_6_14" x1="178.965" y1="0" x2="178.965" y2="29" gradientUnits="userSpaceOnUse">
<stop stop-color="#FF0000"/>
<stop offset="0.326923" stop-color="#FF6200"/>
<stop offset="0.538462" stop-color="#FFA600"/>
<stop offset="0.966346" stop-color="#0DB3FF"/>
</linearGradient>
</defs>
</svg>
