<svg width="34" height="29" viewBox="0 0 34 29" fill="none" xmlns="http://www.w3.org/2000/svg">
<path d="M29 14.5C29 22.5081 22.5081 29 14.5 29C6.49187 29 0 22.5081 0 14.5C0 6.49187 6.49187 0 14.5 0C22.5081 0 29 6.49187 29 14.5Z" fill="white"/>
<path d="M32 14.5C32 22.5081 25.5081 29 17.5 29C9.49187 29 3 22.5081 3 14.5C3 6.49187 9.49187 0 17.5 0C25.5081 0 32 6.49187 32 14.5Z" fill="url(#paint0_linear_6_15)"/>
<path d="M25 9C25 10.1046 24.1046 11 23 11C21.8954 11 21 10.1046 21 9C21 7.89543 21.8954 7 23 7C24.1046 7 25 7.89543 25 9Z" fill="white"/>
<path d="M24.333 22.4941L26.917 19.5879L28.4121 20.917L24.333 25.5049L21.666 22.5049L19 25.5049L16.333 22.5049L13.667 25.5049L11 22.5039L8.33301 25.5049L5.66602 22.5049L3.08301 25.4121L1.58789 24.083L5.66699 19.4951L8.33301 22.4941L11 19.4951L13.666 22.4941L16.333 19.4951L19 22.4951L21.667 19.4951L24.333 22.4941Z" fill="white"/>
<path d="M29.333 17.4941L31.917 14.5879L33.4121 15.917L29.333 20.5049L26.666 17.5049L24 20.5049L21.333 17.5049L18.667 20.5049L16 17.5039L13.333 20.5049L10.666 17.5049L8.08301 20.4121L6.58789 19.083L10.667 14.4951L13.333 17.4941L16 14.4951L18.666 17.4941L21.333 14.4951L24 17.4951L26.667 14.4951L29.333 17.4941Z" fill="#FFF0DE"/>
<defs>
<linearGradient id="paint0_linear_6_15" x1="53.4732" y1="0" x2="53.4732" y2="29" gradientUnits="userSpaceOnUse">
<stop stop-color="#FF0000"/>
<stop offset="0.326923" stop-color="#FF6200"/>
<stop offset="0.538462" stop-color="#FFA600"/>
<stop offset="0.966346" stop-color="#0DB3FF"/>
</linearGradient>
</defs>
</svg>
